<?xml version="1.0" encoding="UTF-8" standalone="no"?>
<svg
   xmlns:dc="http://purl.org/dc/elements/1.1/"
   xmlns:cc="http://creativecommons.org/ns#"
   xmlns:rdf="http://www.w3.org/1999/02/22-rdf-syntax-ns#"
   xmlns:svg="http://www.w3.org/2000/svg"
   xmlns="http://www.w3.org/2000/svg"
   viewBox="0 0 1122.52 793.70667"
   height="793.70667"
   width="1122.52"
   xml:space="preserve"
   id="svg2"
   version="1.1"><metadata
     id="metadata8"><rdf:RDF><cc:Work
         rdf:about=""><dc:format>image/svg+xml</dc:format><dc:type
           rdf:resource="http://purl.org/dc/dcmitype/StillImage" /></cc:Work></rdf:RDF></metadata><defs
     id="defs6"><clipPath
       id="clipPath18"
       clipPathUnits="userSpaceOnUse"><path
         id="path16"
         d="M 0,595.28 H 841.89 V 0 H 0 Z" /></clipPath></defs><g
     transform="matrix(1.3333333,0,0,-1.3333333,0,793.70667)"
     id="g10"><g
       id="g12"><g
         clip-path="url(#clipPath18)"
         id="g14"><g
           transform="translate(619.4502,345.2744)"
           id="g20"><path
             id="path22"
             style="fill:#155196;fill-opacity:1;fill-rule:evenodd;stroke:none"
             d="M 0,0 V 14.265 C 0,54.344 -19.506,71.729 -58.582,71.142 -96.168,70.61 -113.639,51.909 -113.639,8.487 v -80.804 c 0,-40.139 20.506,-60.506 54.463,-60.506 42.018,0 59.176,18.256 59.176,55.271 v 30.342 h -42.939 v -24.047 c 0,-12.039 1.728,-26.631 -11.209,-26.631 -9.116,0 -13.54,4.887 -13.54,15.918 l 0.258,97.278 c 0,12.818 0.83,22.359 13.641,22.119 7.703,0 10.15,-10.324 10.15,-27.11 l 0,-10.317 z" /></g><g
           transform="translate(376.9014,215.0273)"
           id="g24"><path
             id="path26"
             style="fill:#155196;fill-opacity:1;fill-rule:evenodd;stroke:none"
             d="M 0,0 -0.318,135.57 18.803,0 h 31.51 L 68.25,136.187 69.818,0 h 43.741 V 196.67 H 44.35 L 33.643,133.067 33.359,132.744 22.637,196.67 H -44.686 V 0 Z" /></g><g
           transform="translate(249.1768,379.1201)"
           id="g28"><path
             id="path30"
             style="fill:#155196;fill-opacity:1;fill-rule:evenodd;stroke:none"
             d="m 0,0 c 14.469,0 20.75,-3.354 20.75,-20.961 0,-23.36 -4.105,-25.167 -20.75,-25.798 z m 0.633,-82.048 c 16.332,1.306 24.144,-3.428 23.846,-23.277 -0.29,-23.885 -5.34,-27.061 -23.846,-25.237 z m 12.4,-82.045 c 33.354,0 55.225,7.225 55.225,56.903 0,24.404 -5.262,31.368 -23.932,43.435 v 2.213 c 17.619,5.332 19.32,25.934 19.32,43.238 0,39.623 -24.261,50.882 -55.253,50.882 h -53.204 v -196.671 z" /></g></g></g></g></svg>